<?xml version="1.0" encoding="utf-8"?>
<!-- Generator: Adobe Illustrator 27.1.1, SVG Export Plug-In . SVG Version: 6.00 Build 0)  -->
<svg version="1.1" id="logo_cxc" focusable="false" xmlns="http://www.w3.org/2000/svg" xmlns:xlink="http://www.w3.org/1999/xlink"
	 x="0px" y="0px" viewBox="0 0 82 36" style="enable-background:new 0 0 82 36;" xml:space="preserve">
<style type="text/css">
	.st0{fill:#FFFFFF;}
</style>
<ellipse id="椭圆_1" class="st0" cx="41" cy="18" rx="18" ry="18"/>
<path id="路径_1" d="M18,36C8,36,0,27.9,0,18S8,0,18,0c4.8,0,9.4,1.9,12.7,5.3l1.5,1.5l0,0c-1.4,1.3-3.5,1.4-4.9,0.1
	c-0.1-0.1-0.1-0.1-0.1-0.1C21,1.7,11.9,2.6,6.8,8.8c-5.1,6.2-4.2,15.3,2,20.4c5.3,4.4,13.1,4.4,18.4,0c0,0,0.1-0.1,0.1-0.1
	c1.4-1.3,3.6-1.2,4.9,0.1l0,0l-1.5,1.5C27.3,34.1,22.8,36,18,36z"/>
<path id="路径_2" d="M81.5,13.3c-1.8,0.7-3.8-0.2-4.6-1.9c0,0,0-0.1-0.1-0.1c-3.7-7.1-12.5-9.8-19.6-6.1c-0.9,0.5-1.7,1-2.4,1.6
	c0,0-0.1,0.1-0.1,0.1c-1.4,1.3-3.6,1.2-4.9-0.1l0,0l1.5-1.5c7-7,18.4-7,25.5,0c1.8,1.8,3.2,4,4.1,6.4L81.5,13.3L81.5,13.3z"/>
<path id="路径_3" d="M76.9,24.6c0,0,0,0.1,0,0.1c-3.7,7.1-12.5,9.8-19.6,6.1c-1.3-0.7-2.5-1.5-3.5-2.6L43.5,18l0,0l5.7-5.7
	c-1.4-1.4-3.6-1.4-5,0c0,0,0,0,0,0L41,15.5l-3.3-3.3c-1.4-1.4-3.6-1.4-5,0c0,0,0,0,0,0l5.7,5.7l0,0l-5.7,5.7c1.4,1.4,3.6,1.4,5,0
	c0,0,0,0,0,0l3.3-3.3l10.2,10.2c7,7,18.4,7,25.5,0c1.8-1.8,3.2-4,4.1-6.4l0.6-1.6C79.7,22,77.7,22.9,76.9,24.6z"/>
<path id="路径_4" d="M79.4,16.9c0.6-0.6,1.5-0.6,2.1,0c0,0,0,0,0,0l0,0c0.6,0.6,0.6,1.5,0,2.1c0,0,0,0,0,0l0,0
	c-0.6,0.6-1.5,0.6-2.1,0c0,0,0,0,0,0l-0.9-0.9c-0.1-0.1-0.1-0.3,0-0.4c0,0,0,0,0,0L79.4,16.9z"/>
</svg>
