<?xml version="1.0" encoding="UTF-8"?>
<svg id="_圖層_2" data-name="圖層 2" xmlns="http://www.w3.org/2000/svg" viewBox="0 0 1053.67 861.39">
  <defs>
    <style>
      .cls-1 {
        fill: black;
      }
    </style>
  </defs>
  <g id="_圖層_2-2" data-name="圖層 2">
    <path class="cls-1" d="m85.05,355.89c7.78-5.3,13.45-12.32,17.33-20.08,8.19,14.63,20.35,26.72,34.33,35.1-.21,8.76-.11,17.37.6,25.59,4.48,52.44,27.18,92.19,61.51,98.87,48.9,9.51,102.72-51.62,120.21-136.54,17.49-84.92-7.98-161.47-56.88-170.99-19.07-3.71-38.86,3.43-56.98,18.43-19.74,16.34-37.36,42.21-49.91,73.83-.51-.13-.93-.13-1.45-.28-6.16-1.72-9.45-5.62-13.71-6.5,16.9-17.76,19.45-45.12,4.58-65.73-17.13-23.75-50.82-29.51-75.26-12.86-22.01,14.99-28.83,43-17.48,65.77-10.03.37-20.08,3.36-28.91,9.38-24.44,16.65-30.36,49.39-13.24,73.14,17.13,23.75,50.82,29.51,75.26,12.86Zm109.98-104.99c11.8-9.77,24.69-14.42,37.12-12,31.85,6.2,48.44,56.06,37.05,111.38-11.39,55.32-46.45,95.14-78.31,88.94-21.65-4.21-36.1-28.7-39.65-61.26,7.95,3,16.19,4.92,24.52,5.29,23.11,1.02,38.24-6.54,50.01-21.9,15.2-19.83,3.7-74.76-16.38-81.87-15.63-5.54-24.88,1.09-38.77,2.1,7.02-12.7,15.38-23.22,24.4-30.69Z"/>
    <path class="cls-1" d="m239.72,154.28c.85-.33,1.7-.63,2.55-1.01,13.13-4.76,26.45-6.26,39.51-3.72,63.24,12.3,96.18,111.3,73.56,221.13-22.62,109.83-92.22,188.88-155.47,176.58-44.34-8.63-73.68-59.94-79.52-127.65,0-.07-.02-.15-.02-.22-.02.73.02,1.48,0,2.21-.12,5.66-.11,11.34,0,17.05.02,1.05-.03,2.09,0,3.14.02.84.11,1.67.14,2.51.21,6.35.55,12.66,1.03,18.93.22,2.86.54,5.69.82,8.54.3,3.08.65,6.14,1.02,9.2,5.87,48.93,20,95.32,41.2,137.73,2.67,5.34,1.31,11.72-3.43,15.46l-12.15,9.6c-11.04,8.72-15.89,22.1-14.23,34.95.28,2.18.79,4.33,1.46,6.45.08.24.16.48.25.72.7,2.07,1.55,4.1,2.6,6.06l2.22-1.64,10.06-7.44c5.04-3.73,12.24-2.79,16.08,2.11,3.84,4.9,2.87,11.9-2.17,15.63l-10.77,7.97-1.61,1.19,51.65,61.75c13.81,16.52,39.02,19.05,56.01,5.62l11.31-8.93c4.8-3.79,11.59-3.73,16.43,0,78.55,60.55,178.5,95.74,286.56,93.03,91.31-2.29,175.38-31.35,244.65-79.14,5.14-3.55,12.08-3.16,16.65,1.06l7.19,6.64c13.63,12.58,34.19,13.81,49.29,4.17.82-.52,1.66-1.09,2.44-1.67l-.17-.15-9.21-8.42c-4.62-4.21-4.86-11.27-.52-15.76,4.34-4.49,11.6-4.72,16.22-.51l9.88,9,55.3-56.59c15.08-15.43,14.42-40.05-1.45-54.71l-11.54-10.65c-4.35-4.01-5.26-10.32-2.35-15.42,41.16-72.16,61.63-156.83,53.65-246.32-1.15-12.94-2.93-25.7-5.25-38.29,13.24-11.84,37.46-35.14,46.93-55.11,10.17-21.44,12.72-43.53-14.15-33.81-20.91,7.57-36.99,12.42-56.46,8.12C913.67,120.39,763.09,9.42,587.28.59c-148.54-7.46-281.08,55.87-366.74,157.56-3.91,4.64-7.8,9.29-11.51,14.09-.3.39-.64.76-.94,1.15.05-.04.1-.08.15-.12,10.17-8.39,20.74-14.74,31.47-18.99Z"/>
  </g>
</svg>